<?xml version="1.0" standalone="no"?>
<!DOCTYPE svg PUBLIC "-//W3C//DTD SVG 20010904//EN"
 "http://www.w3.org/TR/2001/REC-SVG-20010904/DTD/svg10.dtd">
<svg version="1.0" xmlns="http://www.w3.org/2000/svg"
 width="112.000000pt" height="112.000000pt" viewBox="0 0 112.000000 112.000000"
 preserveAspectRatio="xMidYMid meet">
<metadata>
Created by potrace 1.11, written by Peter Selinger 2001-2013
</metadata>
<g transform="translate(0.000000,112.000000) scale(0.100000,-0.100000)"
fill="#000000" stroke="none">
<path d="M37 972 c-15 -2 -27 -6 -27 -8 0 -5 113 -321 251 -701 29 -80 46
-113 58 -114 104 -5 494 0 500 7 8 8 69 175 213 579 27 77 58 161 68 188 17
43 18 47 2 48 -57 2 -1042 3 -1065 1z m1013 -51 c0 -10 -34 -110 -70 -206 -10
-27 -48 -133 -85 -235 -36 -102 -74 -207 -84 -235 l-18 -50 -230 -3 -230 -2
-62 172 c-34 95 -73 202 -86 238 -54 148 -115 320 -115 325 0 3 221 5 490 5
299 0 490 -4 490 -9z"/>
<path d="M131 880 c0 -14 9 -45 20 -70 20 -45 18 -33 -6 50 -9 30 -14 37 -14
20z"/>
<path d="M165 889 c-16 -7 -15 -8 7 -6 15 2 30 5 33 8 8 8 -18 7 -40 -2z"/>
<path d="M270 890 c-12 -7 -10 -9 7 -7 12 0 19 5 17 9 -6 10 -6 10 -24 -2z"/>
<path d="M865 890 c-16 -7 -17 -9 -3 -9 9 -1 20 4 23 9 7 11 7 11 -20 0z"/>
<path d="M228 883 c7 -3 16 -2 19 1 4 3 -2 6 -13 5 -11 0 -14 -3 -6 -6z"/>
<path d="M348 883 c7 -3 16 -2 19 1 4 3 -2 6 -13 5 -11 0 -14 -3 -6 -6z"/>
<path d="M388 883 c7 -3 16 -2 19 1 4 3 -2 6 -13 5 -11 0 -14 -3 -6 -6z"/>
<path d="M469 811 c26 -44 56 -97 66 -120 11 -22 22 -41 25 -41 3 0 22 31 42
68 21 37 52 92 69 122 18 30 27 51 21 45 -6 -5 -38 -56 -71 -113 l-59 -104
-40 69 c-21 37 -50 87 -63 110 -13 24 -27 43 -31 43 -3 0 15 -36 41 -79z"/>
<path d="M718 883 c6 -2 18 -2 25 0 6 3 1 5 -13 5 -14 0 -19 -2 -12 -5z"/>
<path d="M768 883 c7 -3 16 -2 19 1 4 3 -2 6 -13 5 -11 0 -14 -3 -6 -6z"/>
<path d="M908 883 c7 -3 16 -2 19 1 4 3 -2 6 -13 5 -11 0 -14 -3 -6 -6z"/>
<path d="M961 883 l26 -4 -94 -266 c-51 -146 -92 -268 -89 -270 2 -2 44 112
94 254 50 142 93 266 97 276 6 14 2 17 -26 16 -28 -2 -30 -3 -8 -6z"/>
<path d="M287 773 c-3 -5 17 -69 43 -143 101 -284 140 -396 140 -403 0 -5 -24
-7 -52 -5 l-53 3 -15 45 c-60 177 -124 350 -127 346 -3 -3 63 -198 123 -363
l16 -43 59 0 c40 0 59 4 59 12 0 12 -30 99 -140 408 l-48 135 27 6 26 7 -27 1
c-15 0 -29 -2 -31 -6z"/>
<path d="M404 693 c28 -49 74 -127 101 -175 28 -49 53 -88 56 -88 4 0 51 76
104 170 57 99 101 167 108 163 6 -3 7 -1 3 6 -4 6 -11 9 -16 6 -5 -3 -50 -77
-100 -165 -51 -88 -97 -160 -104 -159 -7 0 -6 2 2 6 6 2 11 14 11 26 -1 17 -2
18 -6 5 -2 -10 -8 -18 -12 -18 -5 0 -48 70 -97 155 -49 85 -92 155 -96 155 -3
0 17 -39 46 -87z"/>
<path d="M798 773 c7 -3 16 -2 19 1 4 3 -2 6 -13 5 -11 0 -14 -3 -6 -6z"/>
<path d="M787 647 c-25 -72 -68 -197 -96 -276 -28 -80 -51 -149 -51 -153 0 -5
28 -8 62 -6 l61 3 19 54 c10 30 16 56 14 59 -3 2 -12 -21 -22 -52 l-18 -56
-53 0 c-29 0 -53 2 -53 5 0 2 9 28 19 57 64 174 172 491 168 494 -2 2 -24 -56
-50 -129z"/>
<path d="M171 755 c1 -19 18 -51 18 -35 0 8 -4 22 -9 30 -5 8 -9 11 -9 5z"/>
<path d="M195 680 c12 -40 26 -59 19 -25 -4 17 -11 35 -16 40 -7 7 -8 1 -3
-15z"/>
<path d="M559 633 c0 -5 -2 -18 -3 -31 -2 -13 0 -25 4 -27 3 -2 6 12 7 31 0
19 -1 34 -3 34 -2 0 -4 -3 -5 -7z"/>
<path d="M555 550 c3 -5 8 -10 11 -10 2 0 4 5 4 10 0 6 -5 10 -11 10 -5 0 -7
-4 -4 -10z"/>
<path d="M555 520 c3 -5 8 -10 11 -10 2 0 4 5 4 10 0 6 -5 10 -11 10 -5 0 -7
-4 -4 -10z"/>
</g>
</svg>
